<?xml version="1.0" encoding="UTF-8"?>
<!-- Generated by Pixelmator Pro 3.5.7 -->
<svg width="1200" height="1000" viewBox="0 0 1200 1000" xmlns="http://www.w3.org/2000/svg">
    <g id="Group">
        <path id="Path" fill="#080605" stroke="none" d="M 419.209961 950.27002 C 366.252014 947.307007 335.455994 942.295044 313.434998 933.082031 C 295.776978 925.740967 285.927002 916.985962 276.552002 900.432007 C 270.939026 890.277954 270.776978 889.802979 270.776978 873.707031 C 270.776978 858.552979 271.247986 856.52002 275.77301 846.83606 C 289.359985 818.073975 320.463989 800.886963 369.52301 794.802979 C 377.497986 793.71106 377.497986 793.71106 380.622986 785.735962 C 386.563965 770.744995 388.744019 761.823975 390.30603 748.545044 C 392.959961 725.432007 393.593994 726.832031 381.401978 726.832031 C 349.064026 726.832031 280.314026 735.899048 227.80603 747.14502 C 216.252014 749.652954 203.585022 752.302979 199.68103 753.08606 C 182.802002 756.52002 142.177002 767.927979 117.651978 775.886963 C 103.114014 780.737061 88.906006 784.64502 86.234985 784.64502 C 81.710022 784.64502 81.093994 783.862061 76.552002 774.177979 C 66.252014 751.052979 63.27301 744.490967 60.927002 738.552979 C 59.672974 735.115967 57.963989 731.682007 57.184998 730.737061 C 56.547974 729.957031 55.93103 726.524048 55.93103 722.927979 L 55.93103 716.677979 L 80.622986 705.427979 C 113.580994 690.277954 126.244019 684.64502 127.026978 684.64502 C 127.335022 684.64502 131.401978 682.920044 135.927002 681.04895 C 151.080994 674.177979 180.93103 663.552979 203.585022 656.682007 C 208.747986 655.119995 218.122986 651.832031 224.372986 649.652954 C 231.877014 646.982056 241.39801 644.965942 252.497986 644.02002 C 261.710022 643.237061 277.643982 641.840942 288.127014 640.89502 C 298.427002 639.948975 321.393982 639.332031 339.052002 639.640991 C 360.309998 639.948975 370.939026 639.640991 370.302002 638.552979 C 369.830994 637.77002 360.927002 624.323975 350.77301 608.862061 C 311.564026 549.323975 301.244019 516.203003 303.422974 457.302979 C 303.89801 442.765991 304.838989 426.832031 305.314026 421.982056 L 306.401978 413.078003 L 277.026978 383.244995 C 260.927002 366.840942 247.172974 353.39502 246.718994 353.39502 C 246.247986 353.39502 244.047974 356.357056 241.869019 359.953003 C 239.689026 363.386963 233.585022 372.307007 228.276978 379.485962 L 218.593994 392.619995 L 229.984985 386.369995 C 238.27301 381.828003 243.268982 379.957031 247.955994 379.957031 C 254.369019 379.957031 254.369019 379.957031 254.369019 385.899048 C 254.369019 396.052979 249.989014 416.677979 245.776978 426.994995 C 235.14801 452.302979 228.276978 462.77002 204.531006 490.732056 C 194.830994 502.140991 187.797974 511.045044 188.906006 510.261963 C 190.143982 509.64502 201.406006 502.448975 214.052002 494.490967 C 231.877014 483.082031 238.127014 479.957031 242.484985 479.957031 C 247.955994 479.957031 248.119019 480.119995 248.119019 485.899048 C 248.119019 509.64502 260.002014 539.332031 277.026978 557.920044 C 289.213989 571.198975 312.797974 586.677979 327.497986 591.057007 C 333.439026 592.765991 334.05603 593.402954 334.05603 598.090942 C 334.05603 604.340942 332.802002 604.649048 302.026978 608.698975 C 269.994019 612.932007 221.393982 625.27002 195.776978 635.735962 C 156.401978 651.832031 154.531006 652.777954 116.869019 671.362061 C 95.609985 681.828003 83.893982 688.240967 68.593994 697.453003 C 61.401978 701.832031 57.02301 703.39502 52.189026 703.39502 L 45.776978 703.39502 L 38.906006 681.828003 C 35.14801 670.110962 31.093994 657.465942 29.984985 653.865967 C 28.89801 650.27002 26.080994 638.240967 24.064026 627.302979 C 20.302002 608.862061 18.268982 596.362061 13.744019 565.89502 C 11.088989 548.235962 9.672974 476.670044 11.872986 472.615967 C 12.960022 470.744995 21.247986 463.386963 30.460022 456.357056 C 45.939026 444.636963 63.434998 430.427979 65.30603 428.232056 C 65.776978 427.777954 76.244019 419.802979 88.744019 410.427979 C 101.244019 401.052979 111.710022 392.927979 112.18103 392.457031 C 112.960022 391.511963 142.960022 368.073975 151.080994 361.987061 C 153.276978 360.427979 159.364014 355.427979 164.689026 351.052979 C 169.830994 346.83606 176.859985 341.203003 180.151978 338.552979 C 183.439026 336.045044 188.744019 331.828003 191.869019 329.177979 C 195.156006 326.670044 200.297974 322.453003 203.585022 319.802979 C 206.710022 317.295044 215.143982 310.427979 222.026978 304.649048 C 234.672974 294.02002 234.672974 294.02002 244.377014 294.02002 C 254.838989 294.02002 256.401978 294.965942 274.68103 311.823975 C 278.585022 315.277954 285.14801 321.052979 289.526978 324.487061 C 293.739014 327.92395 298.427002 331.828003 299.68103 333.082031 C 301.080994 334.33606 306.710022 339.332031 312.18103 344.02002 C 317.814026 348.707031 323.119019 353.703003 324.210022 354.957031 C 325.627014 356.828003 327.026978 354.957031 332.02301 344.802979 C 335.309998 337.932007 345.609985 317.927979 354.677002 300.27002 C 376.080994 258.862061 376.080994 258.862061 408.276978 172.307007 C 419.047974 143.237061 439.213989 99.652832 451.713989 78.39502 C 461.564941 61.677979 475.935059 41.677979 483.272949 34.807129 C 491.397949 27.141113 492.031006 26.832031 500.772949 26.832031 C 509.218994 26.832031 510.456055 27.302979 514.834961 31.990967 C 521.394043 38.865967 530.769043 54.794922 543.43103 80.427979 L 554.060059 101.995117 L 556.876953 97.927979 C 565.30603 86.207031 585.310059 61.370117 592.484985 54.011963 C 599.989014 46.198975 601.244019 45.582031 607.802002 45.582031 C 619.685059 45.582031 620.609985 47.615967 619.047974 68.237061 C 617.177002 91.84082 617.814941 110.73584 620.609985 115.112061 C 622.172974 117.457031 626.859985 119.96582 633.439941 122.14502 C 659.526978 130.427979 666.869019 137.152832 679.369019 163.386963 C 688.744019 182.920044 690.614014 185.261963 707.185059 197.761963 C 712.489014 201.832031 717.959961 207.136963 719.209961 209.64502 C 722.810059 216.511963 722.026978 225.578003 717.031006 236.515991 C 714.689941 241.985962 712.18103 250.27002 711.709961 255.119995 C 710.001953 272.761963 697.172974 292.765991 682.802002 300.107056 C 679.369019 301.832031 670.939941 304.011963 663.906006 304.795044 C 648.588989 306.828003 639.834961 310.427979 630.93103 318.402954 C 614.526978 333.244995 614.526978 353.232056 630.623047 367.765991 C 639.359985 375.578003 649.064941 379.957031 689.834961 393.857056 L 725.935059 406.04895 L 733.584961 399.487061 C 737.651978 395.890991 742.484985 391.840942 744.209961 390.58606 C 754.838989 382.136963 778.114014 362.607056 784.05603 357.136963 C 787.959961 353.557007 810.781006 334.33606 834.834961 314.170044 C 858.894043 294.182007 883.748047 273.235962 890.144043 267.927979 C 901.244019 258.390991 902.026978 258.082031 910.310059 258.082031 C 918.739014 258.082031 919.047974 258.244995 935.456055 271.83606 C 952.498047 285.899048 983.748047 311.677979 1010.619019 333.862061 C 1018.901978 340.732056 1034.834961 354.011963 1045.939941 363.240967 C 1069.047974 382.610962 1073.734985 386.515991 1085.619019 395.890991 C 1090.30603 399.487061 1098.901978 406.357056 1104.531006 411.207031 C 1129.838989 432.465942 1159.526978 456.828003 1166.084961 461.987061 C 1176.859985 470.420044 1176.244019 467.765991 1176.244019 504.485962 C 1176.244019 537.932007 1172.810059 587.46106 1169.994019 594.965942 C 1169.047974 597.14502 1168.43103 601.360962 1168.43103 604.340942 C 1168.43103 609.482056 1168.269043 609.64502 1161.873047 609.64502 C 1157.022949 609.482056 1152.189941 607.774048 1144.209961 603.39502 C 1125.459961 592.619995 1073.119019 566.511963 1055.93103 559.17395 C 991.869019 531.990967 945.776978 520.420044 902.80603 520.744995 C 891.251953 520.890991 880.151978 521.362061 878.114014 521.83606 C 874.68103 522.927979 874.68103 523.090942 881.401978 532.302979 C 885.001953 537.46106 890.144043 544.965942 892.651978 549.015991 L 897.334961 556.52002 L 934.05603 557.136963 C 972.647949 557.774048 991.706055 559.64502 1009.834961 564.332031 C 1059.834961 577.302979 1106.239014 595.582031 1146.394043 618.073975 C 1164.834961 628.557007 1164.359985 627.140991 1158.109985 652.140991 C 1153.584961 670.274048 1135.456055 725.886963 1131.709961 733.082031 C 1129.677002 736.987061 1128.422974 737.77002 1123.281006 737.77002 C 1119.994019 737.77002 1109.05603 735.261963 1098.734985 732.136963 C 1068.43103 723.090942 1044.047974 716.511963 1021.394043 711.369995 C 1001.081055 706.828003 994.685059 705.737061 963.272949 701.215942 L 949.519043 699.177979 L 950.772949 717.295044 C 953.751953 760.115967 951.244019 798.090942 944.047974 822.761963 C 931.547974 866.057007 907.185059 895.744995 867.959961 915.732056 C 843.739014 928.08606 817.031006 935.427979 774.68103 941.511963 C 718.593994 949.653076 696.084961 950.740967 564.526978 951.052979 C 497.501953 951.361084 432.18103 950.886963 419.209961 950.27002 Z M 556.709961 880.737061 C 668.593994 872.453003 722.956055 848.399048 753.114014 794.02002 C 760.147949 781.357056 762.797974 770.744995 762.797974 756.52002 C 762.959961 744.490967 762.343994 742.149048 757.656006 732.610962 C 754.677002 726.832031 749.519043 718.857056 746.248047 715.112061 C 739.052002 706.828003 725.297974 698.399048 715.30603 695.890991 C 700.459961 692.295044 683.584961 699.79895 675.626953 713.552979 C 669.047974 724.79895 669.047974 726.052979 676.406006 734.33606 C 685.310059 744.328003 688.744019 752.302979 688.744019 763.240967 C 688.744019 778.08606 683.109985 788.078003 670.776978 794.490967 C 665.776978 796.982056 661.709961 797.761963 651.244019 797.615967 C 639.834961 797.615967 636.709961 796.982056 628.897949 793.237061 C 610.927002 784.33606 598.119019 764.640991 594.685059 740.732056 C 592.484985 724.96106 594.994019 698.090942 599.989014 685.899048 C 608.109985 665.89502 622.501953 648.399048 640.30603 636.987061 C 659.672974 624.487061 679.838989 619.02002 706.093994 619.02002 C 745.776978 619.02002 771.248047 628.703003 796.55603 653.39502 C 817.959961 674.323975 830.314941 697.307007 835.619019 726.670044 C 837.959961 739.494995 837.489014 779.649048 834.834961 791.985962 C 830.623047 812.152954 820.463989 836.045044 810.619019 848.707031 C 803.422974 858.082031 803.422974 858.552979 810.147949 855.737061 C 830.151978 847.453003 854.369019 827.302979 865.614014 809.64502 C 891.251953 769.182007 892.031006 707.302979 867.651978 640.277954 C 847.647949 584.953003 808.109985 530.265991 766.084961 499.323975 C 759.218994 494.328003 753.276978 489.802979 752.80603 489.170044 C 750.626953 486.677979 730.314941 475.578003 713.435059 467.619995 C 694.209961 458.552979 674.064941 450.432007 677.026978 452.92395 C 677.968994 453.703003 685.456055 459.482056 693.901978 465.89502 C 702.334961 472.14502 714.834961 483.244995 721.718994 490.42395 C 732.185059 501.670044 734.05603 504.340942 734.05603 509.027954 C 734.05603 514.024048 733.748047 514.332031 728.751953 514.332031 C 725.626953 514.332031 718.739014 511.823975 712.019043 508.244995 C 691.084961 497.14502 677.498047 494.965942 660.927002 499.652954 C 639.359985 505.902954 619.994019 519.490967 601.859985 541.057007 C 574.209961 574.015991 559.526978 605.573975 551.859985 647.927979 C 549.519043 660.899048 548.588989 698.090942 550.459961 708.862061 C 555.459961 739.494995 565.776978 768.402954 578.276978 786.987061 C 581.876953 792.149048 590.468994 802.302979 597.647949 809.482056 C 608.439941 820.420044 610.619019 823.399048 610.619019 827.612061 C 610.619019 832.610962 610.456055 832.610962 601.713989 833.552979 C 588.272949 834.953003 563.744019 836.207031 509.834961 837.77002 C 463.126953 839.170044 405.313965 843.857056 390.468994 847.307007 C 372.64801 851.524048 344.684998 862.932007 346.864014 865.112061 C 347.172974 865.42395 353.585022 867.457031 361.234985 869.636963 C 378.752014 874.79895 418.123047 879.957031 451.244019 881.357056 C 478.422974 882.610962 535.619019 882.302979 556.709961 880.737061 Z M 461.234985 738.552979 C 464.359985 724.96106 464.359985 705.265991 461.401978 679.957031 C 457.331055 645.110962 449.677002 622.453003 427.026978 577.140991 C 404.984985 533.082031 398.119019 510.261963 398.119019 479.957031 C 398.119019 449.177979 403.584961 423.707031 414.998047 401.052979 C 433.584961 363.860962 460.147949 337.152954 494.209961 321.362061 C 515.144043 311.677979 540.614014 303.39502 549.209961 303.39502 C 555.93103 303.39502 552.80603 300.740967 542.814941 298.090942 C 525.935059 293.402954 502.026978 279.485962 492.647949 268.71106 C 486.088989 261.045044 477.498047 248.090942 475.151978 241.840942 C 473.734985 238.386963 472.172974 234.807007 471.55603 233.862061 C 470.939941 233.082031 469.047974 228.08606 467.484985 222.927979 C 461.709961 204.485962 464.359985 136.677979 471.55603 119.802979 C 472.334961 118.073975 473.281006 113.86084 473.734985 110.427979 L 474.68103 104.177979 L 470.939941 111.207031 C 465.144043 122.14502 450.151978 167.927979 446.718994 184.64502 C 432.48999 255.119995 425.93103 275.886963 403.751953 319.02002 C 372.502014 379.795044 366.559998 393.71106 361.234985 418.237061 C 351.244019 464.170044 354.059998 491.365967 372.955994 530.737061 C 382.656006 550.740967 387.343994 558.552979 406.547974 587.152954 C 421.248047 609.027954 435.452026 635.899048 440.776978 651.832031 C 451.406006 683.390991 454.369019 701.994995 454.531006 739.802979 C 454.677002 769.490967 454.369019 769.490967 461.234985 738.552979 Z M 883.276978 491.057007 C 908.109985 463.386963 918.739014 428.08606 911.401978 397.927979 C 910.147949 392.765991 909.218994 385.899048 909.05603 382.774048 C 909.05603 376.994995 909.218994 376.832031 914.359985 376.832031 C 918.901978 376.832031 922.334961 379.011963 935.001953 389.802979 C 953.422974 405.265991 971.394043 419.328003 987.18103 430.119995 L 998.734985 438.240967 L 985.927002 422.761963 C 965.776978 398.399048 943.739014 368.71106 915.30603 327.777954 C 911.401978 322.14502 907.963989 317.619995 907.494019 317.457031 C 907.022949 317.457031 895.609985 328.557007 882.185059 342.149048 C 842.651978 381.828003 842.031006 382.610962 852.498047 381.04895 C 855.623047 380.573975 863.744019 379.649048 870.463989 379.011963 L 882.494019 377.92395 L 882.494019 384.17395 C 882.494019 389.948975 881.547974 391.365967 870.463989 401.994995 C 856.093994 415.732056 850.772949 419.490967 823.588989 435.735962 C 812.18103 442.457031 802.968994 448.399048 803.276978 449.015991 C 803.422974 449.652954 808.894043 454.485962 815.30603 459.807007 C 830.314941 471.982056 842.177002 483.390991 854.369019 497.14502 L 864.052002 507.920044 L 871.248047 502.140991 C 875.297974 499.015991 880.623047 494.02002 883.276978 491.057007 Z M 631.709961 192.457031 C 627.334961 183.698975 622.501953 180.573975 616.084961 182.136963 L 612.019043 183.244995 L 615.614014 187.607056 C 620.463989 193.54895 629.531006 200.107056 632.963989 200.27002 C 635.310059 200.27002 635.310059 199.487061 631.709961 192.457031 Z"/>
        <path id="path1" fill="#080605" stroke="none" d="M 161.232971 903.089966 C 154.528992 899.964966 152.025024 885.73999 156.708008 876.999023 C 159.21698 871.985962 164.357971 869.640991 187.179016 862.610962 C 232.020996 848.71106 244.992004 850.744995 244.992004 871.839966 C 244.828979 883.557007 241.083008 888.390991 229.367004 891.515991 C 222.025024 893.406982 204.982971 898.402954 187.958008 903.561035 C 181.708008 905.432007 165.46698 905.124023 161.232971 903.089966 Z"/>
        <path id="path2" fill="#080605" stroke="none" d="M 996.859985 877.300049 C 963.269043 866.053955 962.177002 865.109009 962.177002 849.484009 C 962.177002 838.858032 962.484985 837.766968 966.248047 834.803955 C 974.061035 828.699951 983.272949 829.953979 1025.293945 843.234009 C 1049.369019 850.884033 1051.547974 852.921021 1050.93103 867.925049 C 1050.456055 877.775024 1049.984985 879.175049 1046.244019 881.988037 C 1043.265015 884.171021 1038.901978 885.425049 1032.959961 885.733032 C 1025.293945 886.203979 1019.68103 884.803955 996.859985 877.300049 Z"/>
        <path id="path3" fill="#080605" stroke="none" d="M 124.370972 855.430054 C 118.737 851.833984 116.867004 847.146973 116.867004 836.371948 C 116.867004 828.868042 117.482971 826.833984 120.607971 823.871948 C 126.078979 818.713013 143.429016 812.609009 194.828979 797.930054 C 248.732971 782.305054 256.400024 781.359009 263.903992 789.496948 C 267.482971 793.405029 268.429016 795.746948 268.429016 801.671997 C 268.429016 815.588013 262.958008 820.583984 242.482971 825.889038 C 219.375 831.829956 196.862 839.171997 157.492004 853.234009 C 142.482971 858.70105 130.929016 859.484009 124.370972 855.430054 Z"/>
        <path id="path4" fill="#080605" stroke="none" d="M 1046.550049 807.140015 C 1032.324951 802.61499 1012.645996 796.05603 1002.800049 792.93103 C 987.012939 787.609985 984.666992 786.373047 982.016968 781.831055 C 977.800049 774.802002 979.525024 760.901978 985.141968 755.269043 C 988.738037 751.672974 989.828979 751.526978 1000.145996 752.144043 C 1006.395996 752.61499 1017.333008 754.797974 1024.675049 757.140015 C 1032.016968 759.484985 1042.171021 762.609985 1047.328979 764.172974 C 1079.199951 774.019043 1089.208008 777.781006 1093.733032 781.522949 C 1098.583008 785.593994 1098.895996 786.373047 1098.895996 796.36499 C 1098.895996 806.213989 1098.583008 807.140015 1093.733032 811.373047 C 1086.083008 818.23999 1077.800049 817.459961 1046.550049 807.140015 Z"/>
    </g>
</svg>
